<svg width="40" height="40" viewBox="0 0 40 40" fill="none" xmlns="http://www.w3.org/2000/svg">
<path d="M36.25 26.25V31.25" stroke="black" stroke-width="1.5" stroke-linecap="round" stroke-linejoin="round"/>
<path d="M3.75 31.25V13.75C3.75 12.37 4.87 11.25 6.25 11.25H12.5" stroke="black" stroke-width="1.5" stroke-linecap="round" stroke-linejoin="round"/>
<path d="M24.3067 31.25C22.9483 33.6283 19.9183 34.455 17.54 33.0967C16.77 32.6567 16.1333 32.02 15.6933 31.25H1.25V33.75C1.25 36.5117 3.48833 38.75 6.25 38.75H33.75C36.5117 38.75 38.75 36.5117 38.75 33.75V31.25H24.3067Z" stroke="black" stroke-width="1.5" stroke-linecap="round" stroke-linejoin="round"/>
<path d="M31.0983 1.68499C25.4867 0.00832797 19.5783 3.19833 17.9017 8.80999C17.155 11.3067 17.355 13.9917 18.4617 16.3517L15.0217 23.3333L22.8933 21.1833C23.5883 21.5817 24.325 21.8983 25.0917 22.1283C30.7633 23.6967 36.6317 20.37 38.1983 14.7C39.7317 9.15499 36.585 3.39333 31.0917 1.68666L31.0983 1.68499Z" stroke="black" stroke-width="1.5" stroke-linecap="round" stroke-linejoin="round"/>
<path d="M25.0117 9.42831C25.0117 7.70165 26.41 6.30331 28.1367 6.30331C29.8633 6.30331 31.2617 7.70165 31.2617 9.42831C31.2617 11.155 29.8633 12.5533 28.1367 12.5533" stroke="black" stroke-width="1.5" stroke-linecap="round" stroke-linejoin="round"/>
<path d="M28.1367 16.3033C27.7917 16.3033 27.5117 16.5833 27.5117 16.9283C27.5117 17.2733 27.7917 17.5533 28.1367 17.5533C28.4817 17.5533 28.7617 17.2733 28.7617 16.9283C28.7633 16.5833 28.485 16.305 28.14 16.3033C28.1383 16.3033 28.1383 16.3033 28.1367 16.3033Z" stroke="black" stroke-width="1.5" stroke-linecap="round" stroke-linejoin="round"/>
</svg>
